#!OML:ASF F:\VICON\USERDATA\INSTALL\rory3\rory3.ASF
:FULLY-SPECIFIED
:DEGREES
1411
root 1.00518 18.9831 3.39139 21.462 -2.59163 -6.3518
lowerback -7.8898 -1.766 1.30588
upperback -6.33665 -2.42455 2.09064
thorax -2.10019 -1.22775 1.28234
lowerneck -7.78341 -14.9465 -16.1842
upperneck 14.3406 -20.1046 10.9235
head 8.47906 -9.72938 3.74974
rclavicle -8.15017e-015 2.34566e-014
rhumerus -34.9883 5.36743 -86.2791
rradius 24.703
rwrist 11.8358
rhand -20.1297 -54.107
rfingers 7.12502
rthumb 6.21459 -83.9959
lclavicle -8.15017e-015 2.34566e-014
lhumerus -43.8469 -4.8741 77.8797
lradius 30.6261
lwrist 7.5429
lhand -34.2829 -30.4175
lfingers 7.12502
lthumb -7.45261 -0.568734
rfemur -37.3332 3.26529 18.0718
rtibia 32.929
rfoot 10.3132 -1.4015
rtoes -20.3604
lfemur -34.4782 0.446107 -3.14685
ltibia 34.5399
lfoot 7.73051 1.70113
ltoes -16.935
1412
root 1.01251 18.7254 3.38673 21.1877 -2.04904 -6.38844
lowerback -7.32392 -1.87781 1.69644
upperback -6.31437 -2.57902 2.05148
thorax -2.40685 -1.3197 1.03567
lowerneck -8.20605 -15.1026 -16.0629
upperneck 14.8799 -20.2431 10.4878
head 8.6905 -9.79714 3.5284
rclavicle 4.32357e-015 -2.90226e-014
rhumerus -35.1592 5.55416 -86.1453
rradius 25.2998
rwrist 10.8633
rhand -21.9892 -51.7424
rfingers 7.12502
rthumb 4.41923 -81.6763
lclavicle 4.32357e-015 -2.90226e-014
lhumerus -43.7206 -4.84417 77.677
lradius 30.9272
lwrist 6.91436
lhand -35.2216 -34.5527
lfingers 7.12502
lthumb -8.3586 -4.73808
rfemur -37.588 2.59747 18.4285
rtibia 34.5055
rfoot 9.86834 -0.678939
rtoes -20.4735
lfemur -35.2461 0.784847 -3.35833
ltibia 36.7839
lfoot 7.34268 -0.38498
ltoes -16.2903
1413
root 1.01437 18.4362 3.35561 21.056 -1.88986 -6.33122
lowerback -6.74686 -1.90678 1.76855
upperback -6.18604 -2.60728 2.0031
thorax -2.59737 -1.33721 0.962651
lowerneck -9.31909 -15.3658 -15.6605
upperneck 15.7954 -20.4051 9.58907
head 9.07007 -9.86559 3.05793
rclavicle 6.16232e-015 1.98785e-015
rhumerus -34.8889 5.54386 -85.861
rradius 25.8641
rwrist 9.81612
rhand -21.3211 -53.7913
rfingers 7.12502
rthumb 5.06433 -83.7107
lclavicle 6.16232e-015 1.98785e-015
lhumerus -43.1675 -4.87513 77.568
lradius 31.1695
lwrist 6.88676
lhand -35.4304 -34.4555
lfingers 7.12502
lthumb -8.56014 -4.64902
rfemur -38.3008 2.41757 18.5069
rtibia 36.4204
rfoot 9.21337 -0.368681
rtoes -21.2762
lfemur -36.2719 1.28225 -3.73204
ltibia 39.3659
lfoot 6.15489 -1.93421
ltoes -18.0836
1414
root 1.00476 18.1233 3.3213 20.7688 -1.5697 -6.26758
lowerback -6.02243 -2.01512 1.66165
upperback -6.05398 -2.72919 2.0088
thorax -2.8555 -1.39422 1.04819
lowerneck -9.68192 -15.4686 -15.418
upperneck 15.9962 -20.4563 9.15522
head 9.13145 -9.89483 2.84772
rclavicle -1.13804e-014 1.23246e-014
rhumerus -34.599 5.56305 -85.5767
rradius 26.2737
rwrist 8.35696
rhand -25.396 -50.2423
rfingers 7.12502
rthumb 1.12913 -80.219
lclavicle -1.13804e-014 1.23246e-014
lhumerus -42.6948 -4.98157 77.5251
lradius 31.3853
lwrist 7.22273
lhand -34.5651 -28.9575
lfingers 7.12502
lthumb -7.72503 0.881429
rfemur -38.8777 2.44966 18.615
rtibia 38.6092
rfoot 5.84557 0.262699
rtoes -28.7331
lfemur -37.2299 1.71024 -4.05888
ltibia 42.1286
lfoot 3.01049 -2.27452
ltoes -21.5036
1415
root 0.996839 17.7939 3.28853 20.3951 -1.00411 -6.38946
lowerback -5.36166 -2.16835 1.83878
upperback -5.9371 -2.92109 2.0644
thorax -3.10689 -1.49545 1.02567
lowerneck -9.40845 -15.4493 -15.3202
upperneck 15.7326 -20.4378 9.06539
head 8.96951 -9.90253 2.838
rclavicle -1.69961e-014 5.56597e-015
rhumerus -34.6464 5.77464 -85.3239
rradius 26.7704
rwrist 8.05903
rhand -23.094 -51.4513
rfingers 7.12502
rthumb 3.3523 -81.4047
lclavicle -1.69961e-014 5.56597e-015
lhumerus -42.41 -5.11309 77.467
lradius 31.7299
lwrist 7.60836
lhand -33.9945 -25.1044
lfingers 7.12502
lthumb -7.17426 4.75399
rfemur -39.3074 2.08318 19.1255
rtibia 41.0976
rfoot 1.16524 0.0530913
rtoes -31.1988
lfemur -38.1742 2.17448 -4.18108
ltibia 45.0719
lfoot -2.12312 -1.10878
ltoes -25.4308
1416
root 0.999933 17.4681 3.25556 20.0557 -0.520766 -6.52723
lowerback -4.70518 -2.29632 2.17652
upperback -5.80029 -3.08055 2.12731
thorax -3.3457 -1.58622 0.924946
lowerneck -9.29295 -15.4262 -15.2553
upperneck 15.4312 -20.3844 8.99366
head 8.82421 -9.88734 2.83348
rclavicle 2.98177e-015 -3.97569e-015
rhumerus -34.5861 6.02541 -84.935
rradius 27.1664
rwrist 9.1861
rhand -20.4437 -53.7272
rfingers 7.12502
rthumb 5.91147 -83.6247
lclavicle 2.98177e-015 -3.97569e-015
lhumerus -42.0337 -5.12689 77.4113
lradius 31.8877
lwrist 7.52838
lhand -34.6084 -27.3072
lfingers 7.12502
lthumb -7.76684 2.5302
rfemur -39.7177 1.23972 19.7632
rtibia 43.6747
rfoot -4.05405 -1.37524
rtoes -32.0981
lfemur -39.1248 2.73368 -4.33575
ltibia 48.0146
lfoot -7.39697 1.00795
ltoes -28.7503
1417
root 0.983648 17.1438 3.22578 19.7593 -0.734742 -6.62641
lowerback -4.06321 -2.133 1.96915
upperback -5.8061 -2.83378 2.22431
thorax -3.69559 -1.45289 1.17214
lowerneck -8.04274 -15.3358 -15.7874
upperneck 14.1562 -20.3805 9.69034
head 8.31466 -9.91844 3.2464
rclavicle 2.94698e-014 -7.15625e-015
rhumerus -34.6063 6.05125 -84.3454
rradius 27.6425
rwrist 9.50473
rhand -21.1233 -53.1364
rfingers 7.12502
rthumb 5.25527 -83.0512
lclavicle 2.94698e-014 -7.15625e-015
lhumerus -41.8887 -5.35454 77.6194
lradius 31.5409
lwrist 6.21577
lhand -35.9823 -32.1942
lfingers 7.12502
lthumb -9.09268 -2.41015
rfemur -40.3908 1.27013 20.1594
rtibia 46.2674
rfoot -8.41053 -4.11282
rtoes -33.8577
lfemur -39.9271 3.70947 -4.53725
ltibia 50.781
lfoot -11.8246 3.4816
ltoes -30.8707
1418
root 0.990446 16.8639 3.1908 19.3692 -0.467985 -6.81515
lowerback -3.33713 -2.13497 2.38943
upperback -5.68137 -2.81551 2.28353
thorax -3.99241 -1.45863 1.02768
lowerneck -6.23225 -15.0143 -16.3063
upperneck 11.5935 -20.1722 11.2227
head 7.36147 -9.83253 4.02178
rclavicle 5.85421e-014 -2.78299e-015
rhumerus -34.2103 6.21498 -83.9132
rradius 27.9835
rwrist 9.41957
rhand -23.5902 -50.1152
rfingers 7.12502
rthumb 2.87315 -80.0756
lclavicle 5.85421e-014 -2.78299e-015
lhumerus -41.4178 -4.91972 77.3325
lradius 32.6445
lwrist 7.19647
lhand -33.8211 -27.4713
lfingers 7.12502
lthumb -7.00686 2.39271
rfemur -40.9915 0.645137 20.7581
rtibia 48.717
rfoot -12.5831 -6.4337
rtoes -31.4305
lfemur -40.7429 4.1031 -4.50725
ltibia 53.2831
lfoot -15.8659 5.68492
ltoes -30.4602
1419
root 0.997798 16.6291 3.16588 19.01 -0.337797 -6.78075
lowerback -2.72091 -2.19208 2.57438
upperback -5.56812 -2.8711 2.27561
thorax -4.23177 -1.49383 0.941196
lowerneck -6.91052 -15.1715 -15.8675
upperneck 12.1934 -20.2325 10.3019
head 7.5299 -9.86899 3.6072
rclavicle 8.34896e-015 -1.70955e-014
rhumerus -33.9586 6.66834 -83.6682
rradius 27.7167
rwrist 10.3458
rhand -25.1021 -48.1241
rfingers 7.12502
rthumb 1.41294 -78.0992
lclavicle 8.34896e-015 -1.70955e-014
lhumerus -40.9578 -4.29679 77.0206
lradius 33.1727
lwrist 6.98319
lhand -33.5075 -28.9341
lfingers 7.12502
lthumb -6.70415 0.939733
rfemur -41.8652 0.0166885 21.035
rtibia 51.0725
rfoot -16.479 -7.53001
rtoes -24.6164
lfemur -41.4168 4.40375 -4.73253
ltibia 55.4566
lfoot -19.1729 7.26105
ltoes -27.0246
1420
root 0.99712 16.3957 3.12779 18.6302 -0.347927 -6.70741
lowerback -1.74692 -2.22014 2.45134
upperback -5.58042 -2.86896 2.30186
thorax -4.78844 -1.48806 1.08206
lowerneck -6.10628 -14.9981 -16.1223
upperneck 11.2541 -20.1295 11.0799
head 7.18881 -9.82109 3.97941
rclavicle 3.72721e-015 -2.46493e-014
rhumerus -33.7219 7.05124 -83.3769
rradius 27.7914
rwrist 10.616
rhand -25.0787 -48.8969
rfingers 7.12502
rthumb 1.43558 -78.8718
lclavicle 3.72721e-015 -2.46493e-014
lhumerus -40.5303 -3.72686 76.7958
lradius 33.0167
lwrist 5.85143
lhand -35.7099 -40.7896
lfingers 7.12502
lthumb -8.82988 -10.9943
rfemur -42.9466 -0.505887 21.3115
rtibia 53.3649
rfoot -19.5085 -8.93826
rtoes -20.576
lfemur -42.0382 4.78508 -4.9199
ltibia 57.4062
lfoot -21.8049 8.28441
ltoes -22.7673
1421
root 0.991109 16.1448 3.07518 18.336 -0.481843 -6.59318
lowerback -0.663029 -2.21359 2.10735
upperback -5.63722 -2.82327 2.32487
thorax -5.44643 -1.44927 1.34833
lowerneck -5.53783 -14.9262 -16.2527
upperneck 10.4511 -20.1244 11.6916
head 6.91582 -9.81782 4.24651
rclavicle -3.11595e-014 0
rhumerus -33.2502 7.25233 -82.9527
rradius 27.771
rwrist 11.8503
rhand -24.4598 -50.5409
rfingers 7.12502
rthumb 2.03326 -80.5109
lclavicle -3.11595e-014 0
lhumerus -40.2636 -3.42942 76.6726
lradius 32.6471
lwrist 4.63128
lhand -36.569 -42.802
lfingers 7.12502
lthumb -9.65882 -13.0434
rfemur -44.1663 -0.783152 21.543
rtibia 55.7621
rfoot -22.1877 -11.3065
rtoes -20.2956
lfemur -42.7759 5.25033 -5.08496
ltibia 59.2609
lfoot -24.2976 9.0464
ltoes -20.4215
1422
root 0.994653 15.93 3.04315 17.9701 -0.891062 -6.45682
lowerback 0.10051 -2.10123 1.89652
upperback -5.54309 -2.65879 2.22797
thorax -5.77868 -1.35849 1.38915
lowerneck -5.39756 -14.9858 -16.2457
upperneck 10.0684 -20.2312 11.9507
head 6.813 -9.8633 4.32745
rclavicle 1.56543e-014 8.74653e-015
rhumerus -32.7996 7.71228 -82.69
rradius 27.7255
rwrist 12.5375
rhand -22.6861 -53.2803
rfingers 7.12502
rthumb 3.74622 -83.2271
lclavicle 1.56543e-014 8.74653e-015
lhumerus -39.8869 -3.02092 76.3272
lradius 33.7965
lwrist 5.69272
lhand -35.3187 -40.8998
lfingers 7.12502
lthumb -8.45233 -11.0889
rfemur -45.0064 -0.790067 21.4614
rtibia 58.181
rfoot -24.4589 -12.855
rtoes -20.1408
lfemur -43.0386 5.94911 -5.42493
ltibia 60.9635
lfoot -26.7837 10.2164
ltoes -20.9434
